<?xml version="1.0" encoding="utf-8"?>
<!-- Generator: Adobe Illustrator 16.0.0, SVG Export Plug-In . SVG Version: 6.00 Build 0)  -->
<!DOCTYPE svg PUBLIC "-//W3C//DTD SVG 1.1//EN" "http://www.w3.org/Graphics/SVG/1.1/DTD/svg11.dtd">
<svg version="1.1" id="Layer_1" xmlns="http://www.w3.org/2000/svg" xmlns:xlink="http://www.w3.org/1999/xlink" x="0px" y="0px"
	 width="300px" height="108.063px" viewBox="0 0 300 108.063" enable-background="new 0 0 300 108.063" xml:space="preserve">
<g>
	<polygon fill="#9C9B9B" points="191.654,85.059 191.654,107.278 196.375,107.278 196.375,87.782 200.814,85.221 205.254,87.782 
		205.254,107.278 209.976,107.278 209.976,85.055 200.814,79.77 	"/>
	<path fill="#9C9B9B" d="M158.958,85.059v17.715l9.161,5.289l9.157-5.289V85.055l-9.161-5.285L158.958,85.059z M172.557,100.051
		l-4.438,2.562l-4.441-2.566V87.782l4.438-2.561l4.441,2.561V100.051z"/>
	<path fill="#9C9B9B" d="M94.743,83.12V70.614h-4.721v32.16l9.16,5.289l9.161-5.285V85.059l-9.161-5.289L94.743,83.12z
		 M103.622,100.051l-4.439,2.562l-4.439-2.562v-12.27l4.439-2.561l4.439,2.561V100.051z"/>
	<polygon fill="#9C9B9B" points="148.019,102.614 143.58,100.051 143.58,87.782 148.019,85.221 154.134,87.606 155.221,83.928 
		148.019,79.77 138.859,85.059 138.859,102.778 148.019,108.063 155.406,103.799 154.098,100.167 	"/>
	<path fill="#9C9B9B" d="M129.98,73.776h-4.72v6.592h-3.565v4.168h3.565v19.818l1.727,0.99c1.386,0.803,3.576,2.037,3.576,2.037
		l1.179,0.682l3.959-2.934l-1.112-3.33l-2.847,0.814c-1.4-0.811-1.033-0.566-1.762-0.977V84.536h5.721v-4.168h-5.721V73.776z"/>
	<rect x="113.002" y="80.368" fill="#9C9B9B" width="4.721" height="26.91"/>
	<polygon fill="#9C9B9B" points="112.515,72.098 112.515,75.448 115.413,77.122 118.312,75.448 118.312,72.098 115.413,70.424 	"/>
	<rect x="182.145" y="80.368" fill="#9C9B9B" width="4.722" height="26.91"/>
	<polygon fill="#9C9B9B" points="181.656,72.098 181.656,75.448 184.556,77.122 187.454,75.448 187.454,72.098 184.556,70.424 	"/>
	<polygon fill="#15A693" points="183.31,23.101 183.31,58.18 190.762,58.18 190.762,27.403 197.768,23.358 204.776,27.403 
		204.776,58.18 212.23,58.18 212.23,23.101 197.768,14.754 	"/>
	<path fill="#15A693" d="M37.291,23.101v50.775h7.454V54.133l7.008,5.288l14.459-8.346V23.101l-14.463-8.347L37.291,23.101z
		 M58.758,46.771l-7.005,4.045l-7.008-4.045V27.403l7.004-4.045l7.009,4.045V46.771z"/>
	<rect x="74.19" y="15.696" fill="#15A693" width="7.452" height="42.484"/>
	<polygon fill="#15A693" points="116.153,52.688 114.08,46.95 104.488,50.816 97.477,46.771 97.477,27.403 104.485,23.358 
		114.141,27.123 115.855,21.316 104.485,14.754 90.022,23.101 90.022,51.074 104.488,59.42 	"/>
	<path fill="#15A693" d="M228.391,5.291h-7.453v10.405h-5.63v6.582h5.63v31.282l2.729,1.569c2.187,1.264,5.644,3.213,5.644,3.213
		l1.861,1.076l6.249-4.631l-1.755-5.257l-4.494,1.282c-2.211-1.275-1.634-0.893-2.781-1.539V22.278h9.03v-6.582h-9.03V5.291z"/>
	<polygon fill="#15A693" points="293.286,14.754 278.828,23.101 278.828,58.18 286.278,58.18 286.278,27.403 293.286,23.358 
		298.754,23.73 300,18.628 	"/>
	<polygon fill="#15A693" points="73.413,2.645 73.413,7.93 77.992,10.572 82.572,7.93 82.572,2.645 77.992,0 	"/>
	<polygon fill="#15A693" points="257.926,50.818 250.914,46.771 250.914,27.403 257.919,23.358 264.927,27.403 264.927,31.89 
		258.245,35.749 255.694,37.219 255.694,40.163 258.245,41.634 272.381,36.194 272.381,23.101 257.919,14.754 243.46,23.101 
		243.46,51.074 257.915,59.418 273.03,50.741 270.194,45.803 	"/>
	<polygon fill="#15A693" points="14.466,50.818 7.452,46.771 7.452,27.403 14.459,23.358 21.467,27.403 21.467,31.89 14.785,35.749 
		12.233,37.219 12.233,40.163 14.785,41.634 28.919,36.194 28.919,23.101 14.459,14.754 0,23.101 0,51.074 14.455,59.418 
		29.57,50.741 26.734,45.803 	"/>
	<polygon fill="#15A693" points="173.145,54.787 173.146,54.787 176.869,52.636 176.869,48.337 173.146,46.186 169.423,48.337 
		169.423,48.342 169.416,48.339 149.529,59.817 129.644,48.339 129.644,25.371 149.529,13.894 165.64,23.199 151.656,31.312 
		149.57,30.09 143.693,33.439 143.653,40.204 149.493,43.62 155.371,40.272 155.385,37.756 169.416,29.619 176.869,25.31 
		176.869,21.074 173.083,18.888 149.529,5.287 122.189,21.074 122.189,52.636 149.529,68.424 	"/>
</g>
</svg>
